<svg id="Ebene_1" data-name="Ebene 1" xmlns="http://www.w3.org/2000/svg" xmlns:xlink="http://www.w3.org/1999/xlink" viewBox="0 0 1500 1500"><defs><style>.cls-1{fill:url(#Unbenannter_Verlauf_7);}</style><linearGradient id="Unbenannter_Verlauf_7" x1="750.18" y1="328.06" x2="750.18" y2="1162.15" gradientUnits="userSpaceOnUse"><stop offset="0" stop-color="#00f0dd"/><stop offset="0.17" stop-color="#2ec4e4"/><stop offset="0.47" stop-color="#787ef0"/><stop offset="0.72" stop-color="#ae4bf8"/><stop offset="0.9" stop-color="#cf2bfd"/><stop offset="1" stop-color="#dc1fff"/></linearGradient></defs><title>Zeichenfläche 1</title><path class="cls-1" d="M1080.07,635.29A114.76,114.76,0,0,0,908,535.9,111.07,111.07,0,0,0,897.2,543a114.89,114.89,0,0,0-114.67-12.58,189,189,0,0,0,1.55-24.18,186.77,186.77,0,0,0-5.74-46.09,280.72,280.72,0,0,0,88.22,13.82c93.15,0,171.49-43,194.18-101.41a17.69,17.69,0,0,0-10.58-23h0a17.66,17.66,0,0,0-22.44,10.12c-8.24,21.28-26.81,36.7-39.08,45-15.33,10.4-33.4,18.64-53.7,24.46a255,255,0,0,1-136.77,0,198.9,198.9,0,0,1-38.58-15.38,186.53,186.53,0,0,0-334,20.32A17.73,17.73,0,0,0,436,457.61h0a17.76,17.76,0,0,0,22.37-9.91l.12-.27A151.21,151.21,0,0,1,656.39,367a150.52,150.52,0,0,1,48,32.38,150.18,150.18,0,0,1,28.75,40.09q1.92,3.9,3.62,7.92A151.73,151.73,0,0,1,743.33,546a114.73,114.73,0,0,0-140.17-3,114.72,114.72,0,0,0-182.88,92.34c0,1.54,0,3.07.09,4.6a114.69,114.69,0,0,0,57.28,94.79c2.36,1.36,4.78,2.65,7.24,3.85A114.86,114.86,0,0,0,554.8,887.16a114.89,114.89,0,0,0,85,147.15,114.75,114.75,0,1,0,220.85,0,114.89,114.89,0,0,0,84.95-147.15,114.89,114.89,0,0,0,69.92-148.63A114.75,114.75,0,0,0,1080.07,635.29ZM772,580.25c.32-.35.66-.69,1-1a79.33,79.33,0,0,1,99-10.65,115,115,0,0,0-14.15,106.91,114.51,114.51,0,0,0-28.74,19.92,114.3,114.3,0,0,0-73.92-31.32,78.21,78.21,0,0,1-5-20.76A79.35,79.35,0,0,1,764.64,589l.06,0c0-.12.11-.23.16-.34A79.63,79.63,0,0,1,772,580.25Zm26.64,233.46a114.83,114.83,0,0,0-48.46,32.54,114.86,114.86,0,0,0-48.47-32.54,113.53,113.53,0,0,0-25.24-5.64,78.73,78.73,0,0,1-5.18-21.31,78.9,78.9,0,0,1,21.82-63.08c.32-.34.66-.69,1-1a78.81,78.81,0,0,1,40.8-21.76,80.53,80.53,0,0,1,30.53,0,78.81,78.81,0,0,1,40.8,21.76l1,1a115.11,115.11,0,0,0-8.61,90Zm-195.48-219a79.32,79.32,0,0,1,117.43-21.5,78.44,78.44,0,0,1,6.76,6c.34.34.68.68,1,1a114.21,114.21,0,0,0-14,55,114.64,114.64,0,0,0,4.79,32.94,114.42,114.42,0,0,0-43.76,23.49c-1.38,1.2-2.74,2.42-4.06,3.68l-.74-.69a114.47,114.47,0,0,0-28-19.23c-2-1-4.1-1.93-6.2-2.8a114,114,0,0,0-27.8-7.58q-5.5-.78-11.17-1a79.63,79.63,0,0,1,5.79-69.4ZM502.78,707.06l-.42.52a78.43,78.43,0,0,1-8.59-4.56A79.26,79.26,0,0,1,479,691.35c-.44-.44-.88-.89-1.31-1.34a78.72,78.72,0,0,1-21.91-54.72q0-3.39.28-6.72a78.6,78.6,0,0,1,21.63-48c.43-.45.87-.9,1.31-1.34a79.33,79.33,0,0,1,99-10.65,115,115,0,0,0-16.58,99.66,114.9,114.9,0,0,0-58.56,38.83ZM571,855.1a79.27,79.27,0,0,1-34.66-132.45c1.51-1.51,3.07-2.94,4.67-4.31,1.94-1.65,4-3.21,6-4.66h0a78.31,78.31,0,0,1,30.1-12.78q1.64-.32,3.27-.57h0a80.68,80.68,0,0,1,12-.89,78.91,78.91,0,0,1,32.66,7,76.77,76.77,0,0,1,9.41,5.05,79.5,79.5,0,0,1,14,11.17l1,1a113.22,113.22,0,0,0-9.24,22.1,115.42,115.42,0,0,0-.48,64.22A114.8,114.8,0,0,0,571,855.1ZM655.34,1001a79.3,79.3,0,0,1,0-157.63,80.26,80.26,0,0,1,30.18,2.43h0a78.84,78.84,0,0,1,34.65,20.32,79.65,79.65,0,0,1,10,12.18,112.2,112.2,0,0,0-4.37,12.6,115.41,115.41,0,0,0,0,62.56A114.85,114.85,0,0,0,655.34,1001Zm150.9,120.68A79.29,79.29,0,1,1,741.4,986.77a82.15,82.15,0,0,1,17.55,0,79.29,79.29,0,0,1,47.29,134.88ZM908,956.07A79.57,79.57,0,0,1,845,1001a114.32,114.32,0,0,0-82.48-49.47,80,80,0,0,1,0-58.69,78.48,78.48,0,0,1,7.64-14.54,79.86,79.86,0,0,1,44.66-32.5h0A80.26,80.26,0,0,1,845,843.34,79.57,79.57,0,0,1,908,888.24c.81,1.7,1.56,3.44,2.24,5.2A79.76,79.76,0,0,1,908,956.07ZM964,834.78a78.78,78.78,0,0,1-34.66,20.32A115.5,115.5,0,0,0,908,832.57a114.3,114.3,0,0,0-71.71-25.16c-.75,0-1.49,0-2.24,0a78.67,78.67,0,0,1-4.93-20.67,79,79,0,0,1,0-16.08,78.5,78.5,0,0,1,21.81-47l1-1A78.85,78.85,0,0,1,908,699.43a80.68,80.68,0,0,1,12,.89h0l3.27.57a78.31,78.31,0,0,1,30.1,12.78h0a80.27,80.27,0,0,1,10.69,9,79.29,79.29,0,0,1,0,112.13Zm57.37-143.43A79.16,79.16,0,0,1,998,707.58c-1.28-1.62-2.6-3.21-4-4.75A114.42,114.42,0,0,0,908,664c-1.66,0-3.32,0-5,.11q-5.65.24-11.17,1A79.21,79.21,0,0,1,908,580.56c.43-.45.87-.9,1.31-1.34a80.3,80.3,0,0,1,13.17-10.65,79.3,79.3,0,0,1,99,122.78Z"/></svg>